# xmcd
#
# Track frame offsets: 
#        150
#        12750
#        22425
#        34200
#        43350
#        53925
#        67275
#        74400
#        80475
#        83025
#        88650
#        93300
#        104550
#        116025
#        124725
#        137625
#        147225
#        152925
#        167400
#        182025
#        195150
#        212325
#        228000
#        245325
#        269025
#        282750
#        300825
#        318975
#        330600
#
# Disc length: 4416 seconds
#
# Revision: 0
# Processed by: cddbd v1.5.2PL0 Copyright (c) Steve Scherf et al.
# Submitted via: ExactAudioCopy v0.95b3
#
DISCID=9e113e1d
DTITLE=Harry Nilsson  - Must Have Been A Sweet Dream - Rarities 1963-1
DTITLE=993  FLAC
DYEAR=1900
DGENRE=
TTITLE0=Donna I Understand
TTITLE1=Wig Job
TTITLE2=Stand Up And Holler
TTITLE3=Baa Baa Black Sheep
TTITLE4=Groovy Little Suzie
TTITLE5=Boy From The City
TTITLE6=The La La Song
TTITLE7=Without Her
TTITLE8=If Only (version #1)
TTITLE9=If Only (version #2)
TTITLE10=Best Friend
TTITLE11=The Story Of Rock And Roll
TTITLE12=Everybody's Talkin' (version #1)
TTITLE13=Everybody's Talkin' (version #2)
TTITLE14=Think About Your Troubles
TTITLE15=Poli High
TTITLE16=Without You
TTITLE17=Si No Estas Tu
TTITLE18=Per Chi
TTITLE19=Leggenda
TTITLE20=Joy (UK mix)
TTITLE21=Mucho Mungo, Mt. Elga (demo)
TTITLE22=with Cher - A Love Like Yours
TTITLE23=With A Bullet
TTITLE24=Judy
TTITLE25=Never Say Goodbye
TTITLE26=Smile
TTITLE27=Yo Dodger Blue
TTITLE28=Arrow 93 jingle
EXTD=
EXTT0=
EXTT1=
EXTT2=
EXTT3=
EXTT4=
EXTT5=
EXTT6=
EXTT7=
EXTT8=
EXTT9=
EXTT10=
EXTT11=
EXTT12=
EXTT13=
EXTT14=
EXTT15=
EXTT16=
EXTT17=
EXTT18=
EXTT19=
EXTT20=
EXTT21=
EXTT22=
EXTT23=
EXTT24=
EXTT25=
EXTT26=
EXTT27=
EXTT28=
PLAYORDER=
